<?xml version="1.0" encoding="UTF-8" standalone="no"?>
<!-- Created with Inkscape (http://www.inkscape.org/) -->

<svg
   width="90mm"
   height="19.999998mm"
   viewBox="0 0 90 19.999998"
   version="1.1"
   id="svg1"
   xml:space="preserve"
   inkscape:export-filename="blog-logo.svg"
   inkscape:export-xdpi="96"
   inkscape:export-ydpi="96"
   xmlns:inkscape="http://www.inkscape.org/namespaces/inkscape"
   xmlns:sodipodi="http://sodipodi.sourceforge.net/DTD/sodipodi-0.dtd"
   xmlns="http://www.w3.org/2000/svg"
   xmlns:svg="http://www.w3.org/2000/svg"><sodipodi:namedview
     id="namedview1"
     pagecolor="#ffffff"
     bordercolor="#000000"
     borderopacity="0.25"
     inkscape:showpageshadow="2"
     inkscape:pageopacity="0.0"
     inkscape:pagecheckerboard="0"
     inkscape:deskcolor="#d1d1d1"
     inkscape:document-units="mm" /><defs
     id="defs1" /><g
     inkscape:label="Calque 1"
     inkscape:groupmode="layer"
     id="layer1"
     transform="translate(-89.016617,-92.910743)"><g
       id="g11"
       transform="matrix(1.0247651,0,0,0.97707613,-9.3117698,1.3815528)"><path
         style="fill:#000000;stroke-width:0.448214;stroke-miterlimit:4"
         d="m 109.01308,114.0545 c -0.41228,-0.0633 -1.29281,-0.29495 -1.95673,-0.5148 -1.01851,-0.33726 -1.4295,-0.40881 -2.63021,-0.45785 -0.78269,-0.032 -1.74327,-0.14682 -2.13462,-0.25523 -3.119363,-0.86405 -5.242689,-3.37289 -5.326733,-6.29387 -0.02272,-0.78931 -0.07809,-1.04168 -0.295556,-1.3471 -1.222843,-1.71732 -0.860037,-4.24208 0.922387,-6.418905 0.240332,-0.293512 0.618104,-0.896104 0.839495,-1.339095 0.540697,-1.081902 1.610207,-2.227782 2.591517,-2.776561 1.28374,-0.717908 1.91988,-0.88415 3.64293,-0.951996 1.32346,-0.05211 1.69048,-0.02407 2.57036,0.196358 1.0017,0.250946 1.05015,0.252344 2.00961,0.05793 1.85099,-0.375056 3.62776,-0.06918 5.05515,0.870264 1.81514,1.194641 3.32309,3.845388 3.82754,6.728205 0.12571,0.71843 0.35682,1.65312 0.51356,2.07707 0.957,2.58848 0.86499,5.32256 -0.24311,7.22451 -0.78944,1.35499 -2.41961,2.46815 -4.36676,2.98183 -1.09945,0.29005 -3.79154,0.40765 -5.01883,0.21923 z m 4.60377,-1.09855 c 2.31835,-0.59812 3.76047,-1.71777 4.40823,-3.42253 0.2833,-0.74558 0.46884,-2.2571 0.3463,-2.82116 l -0.0902,-0.41506 -0.14699,0.68338 c -0.37217,1.73037 -1.75993,3.54783 -3.23667,4.23889 -1.03028,0.48212 -2.37707,0.6735 -3.66562,0.52087 l -0.9832,-0.11646 -0.98906,0.50894 c -0.54398,0.27991 -1.06692,0.50893 -1.1621,0.50893 -0.0952,0 -0.17303,0.0496 -0.17303,0.11018 0,0.0995 0.64888,0.26541 1.60096,0.40921 0.67292,0.10165 3.43992,-0.0372 4.09135,-0.20519 z m -9.94229,-1.41116 c -0.7278,-0.73606 -1.287,-1.54915 -1.39097,-2.02248 -0.0517,-0.2355 -0.18124,-0.37728 -0.42101,-0.46086 -0.8488,-0.29589 -2.252572,-1.06409 -3.069343,-1.67965 -0.489117,-0.36863 -0.906377,-0.61902 -0.927241,-0.55643 -0.07554,0.22663 0.350296,1.61315 0.65639,2.13717 0.568133,0.97263 1.539954,1.87152 2.577434,2.38402 0.86002,0.42484 2.13279,0.77988 2.90257,0.80969 0.25969,0.01 0.22769,-0.0496 -0.32783,-0.61146 z m 4.14905,0.13554 c 0.41425,-0.13469 0.79968,-0.28947 0.85652,-0.34396 0.0568,-0.0545 -0.29004,-0.21249 -0.77083,-0.3511 -0.4808,-0.13862 -1.66746,-0.51913 -2.63702,-0.84558 -0.96956,-0.32644 -1.78947,-0.5669 -1.82202,-0.53435 -0.10499,0.10498 0.43351,0.86632 0.93002,1.31489 0.26544,0.23981 0.73122,0.59557 1.03507,0.79058 0.63503,0.40756 1.07829,0.40195 2.40826,-0.0305 z m 5.31888,-0.94314 c 1.99365,-0.32049 3.45087,-1.66547 4.07173,-3.7581 0.10159,-0.34243 0.16628,-0.6226 0.14373,-0.6226 -0.0225,0 -0.31178,0.18223 -0.64276,0.40496 -0.33097,0.22273 -0.75638,0.43892 -0.94535,0.48043 -0.25588,0.0562 -0.4001,0.20076 -0.56492,0.56627 -0.47671,1.05715 -1.83194,2.05829 -3.39657,2.50913 -0.73954,0.21309 -0.87052,0.3827 -0.35577,0.46068 0.60273,0.0913 0.91524,0.0838 1.68991,-0.0408 z m -2.63863,-1.12552 c 0.12621,-0.039 0.22733,-0.88338 0.10581,-0.88338 -0.0233,0 -0.40078,0.18678 -0.83875,0.41506 -0.43797,0.22828 -0.88582,0.42209 -0.99522,0.43068 -0.10941,0.009 -0.0122,0.0514 0.21614,0.0952 0.39011,0.0748 1.18112,0.0447 1.51202,-0.0576 z m 2.26161,-0.65431 c 0.70514,-0.35236 1.56291,-1.1732 1.56291,-1.49561 0,-0.0938 -0.13833,-0.15654 -0.3452,-0.15654 -0.18986,0 -0.68349,-0.10604 -1.09695,-0.23565 -0.41347,-0.12961 -0.75712,-0.23634 -0.76367,-0.23718 -0.007,-8.7e-4 -0.17094,0.25428 -0.3653,0.56693 -0.33811,0.5439 -0.34802,0.5977 -0.2294,1.24519 0.14763,0.80589 0.21626,0.82324 1.23761,0.31286 z m -4.98544,-0.0524 c 0.81194,-0.19143 1.53014,-0.52128 2.13088,-0.97865 0.4454,-0.33911 0.44949,-0.35699 0.16072,-0.70286 l -0.2168,-0.25968 -0.75762,0.30612 c -0.58417,0.23604 -0.97479,0.30802 -1.70633,0.31441 -1.54305,0.0135 -2.04574,-0.39246 -1.91054,-1.54287 0.0707,-0.60123 0.0608,-0.63349 -0.19339,-0.63102 -0.80344,0.008 -1.96933,0.99609 -2.2397,1.8985 -0.18912,0.63123 -0.0979,0.77265 0.79348,1.22949 1.04332,0.53475 2.60826,0.68037 3.9393,0.36656 z m -5.61837,-1.87784 c 0.24439,-1.30267 1.97761,-2.56803 3.51756,-2.56803 0.32932,0 0.48458,-0.0693 0.62061,-0.27688 0.17245,-0.2632 0.16385,-0.28726 -0.17424,-0.48697 -0.35074,-0.20719 -0.36004,-0.20591 -0.67179,0.0926 -0.81356,0.77908 -2.51934,1.10812 -3.87619,0.74771 -0.39004,-0.10361 -0.82924,-0.22279 -0.97599,-0.26485 -0.24776,-0.071 -0.26675,-0.0395 -0.26567,0.44135 4.5e-4,0.29663 0.12368,0.78098 0.28797,1.13386 0.29974,0.64379 1.21356,1.73457 1.37142,1.637 0.0503,-0.0311 0.12512,-0.23619 0.16632,-0.45582 z m -2.400954,-0.58165 c -0.242905,-0.50029 -0.312077,-0.84912 -0.352125,-1.77567 -0.07373,-1.70567 -0.332275,-1.80418 -1.019959,-0.3886 -0.498844,1.02686 -0.498486,1.08916 0.0091,1.5681 0.481502,0.45434 1.473138,1.21088 1.593626,1.21582 0.0394,0.002 -0.06439,-0.27723 -0.230654,-0.61966 z m 11.359414,0.16009 c 0.0888,-0.16587 0.0792,-0.24121 -0.0362,-0.2855 -0.23587,-0.0905 -0.47618,0.10551 -0.3935,0.32097 0.0978,0.25492 0.28247,0.23967 0.42973,-0.0355 z m -2.69158,-0.13415 c 0.2446,-0.0693 0.44472,-0.17581 0.44472,-0.23664 0,-0.15167 -0.75662,-0.52425 -1.53058,-0.75371 -0.75023,-0.22242 -0.91339,-0.14481 -1.03273,0.4913 -0.11222,0.59822 0.15942,0.78243 1.02164,0.69285 0.35873,-0.0373 0.85236,-0.12448 1.09695,-0.1938 z m 6.42272,-0.5003 c 0.0804,-0.53723 -0.0739,-1.5839 -0.29772,-2.01922 -0.32831,-0.63858 -1.13771,-1.27165 -1.62582,-1.27165 -0.27736,0 -0.40668,0.70336 -0.4252,2.3125 l -0.0123,1.06731 0.59296,0.19802 c 0.32611,0.10892 0.84037,0.20231 1.14278,0.20753 l 0.54984,0.01 z m 1.44018,-0.0264 c 0.4795,-0.36574 0.89574,-1.20507 0.90427,-1.82347 0.0185,-1.33802 -1.64963,-3.43437 -3.45421,-4.341023 -1.11957,-0.56249 -1.07337,-0.592444 -1.07337,0.695883 v 1.13233 l 0.32612,0.0698 c 0.83651,0.17899 1.35454,0.45518 1.79741,0.95831 0.59025,0.67055 0.84187,1.38296 0.92648,2.62307 0.0367,0.5381 0.0942,0.97837 0.12779,0.97837 0.0336,0 0.23404,-0.13197 0.44551,-0.29326 z m -6.23229,-0.23092 c 0,-0.0274 -0.32701,-0.37682 -0.72669,-0.77651 -0.71729,-0.71728 -0.73445,-0.72624 -1.32482,-0.69137 -0.69427,0.041 -0.86758,0.27148 -0.29692,0.3949 0.48083,0.10398 1.35922,0.53863 1.75662,0.86921 0.2655,0.22086 0.59181,0.33322 0.59181,0.20377 z m 1.18676,-1.07818 0.25738,-0.41645 -0.36007,-0.76945 c -0.19804,-0.42319 -0.38393,-0.76944 -0.4131,-0.76944 -0.25873,0 -1.61968,0.51254 -1.61968,0.60998 0,0.16148 1.59587,1.76181 1.7569,1.76181 0.0666,0 0.23701,-0.1874 0.37857,-0.41645 z m -13.486028,-1.03628 c 0.176358,-0.34243 0.381568,-0.70686 0.456021,-0.80985 0.10585,-0.14643 0.06719,-0.35768 -0.177363,-0.96895 -0.171997,-0.42992 -0.312727,-0.91934 -0.312727,-1.08758 0,-0.49328 -0.18258,-0.35539 -0.517458,0.39082 -0.236746,0.52755 -0.312669,0.88842 -0.312669,1.48618 0,0.7585 0.234872,1.61198 0.443605,1.61198 0.05496,0 0.244232,-0.28017 0.420591,-0.6226 z m 6.134618,0.031 c 0.2294,-0.0637 0.58913,-0.26355 0.7994,-0.44405 l 0.38231,-0.32818 -0.41448,-0.64755 c -0.23125,-0.36129 -0.47718,-0.95106 -0.5563,-1.33413 -0.078,-0.37763 -0.20282,-0.68659 -0.2774,-0.68659 -0.44247,0 -2.42146,0.87929 -3.05739,1.35843 -0.13914,0.10484 -0.24918,0.40469 -0.30825,0.83996 l -0.0919,0.67691 0.54543,0.24254 c 0.29999,0.1334 0.70553,0.28147 0.9012,0.32906 0.52906,0.12866 1.60312,0.12534 2.07734,-0.006 z m 3.6698,-0.66986 c 0.3285,-0.19405 0.32859,-0.19446 0.27107,-1.27484 -0.0316,-0.59441 -0.0912,-1.11801 -0.13243,-1.16356 -0.10131,-0.11206 -1.46629,-0.46272 -1.53475,-0.39427 -0.0299,0.0299 0.0164,0.22538 0.10294,0.43432 0.17046,0.41153 0.20481,1.27017 0.0717,1.7923 -0.072,0.28219 -0.0307,0.35848 0.30453,0.56285 0.46966,0.28635 0.50267,0.28791 0.91694,0.0432 z m 1.88956,-0.88351 c 0.26769,-0.0802 0.48505,-0.1774 0.48304,-0.21599 -0.006,-0.11266 -1.01412,-0.84101 -1.16419,-0.84101 -0.0869,0 -0.13663,0.24217 -0.13663,0.66494 0,0.52029 0.036,0.65111 0.16554,0.6014 0.091,-0.0349 0.38456,-0.12914 0.65224,-0.20934 z m -9.900444,-0.82892 c 0.168856,-0.20068 0.307058,-0.42748 0.307107,-0.504 1.89e-4,-0.27596 0.693947,-1.570433 1.037967,-1.93674 0.7112,-0.757261 1.92034,-1.107454 2.89699,-0.839028 0.2985,0.08204 0.34411,0.03837 0.74119,-0.709419 0.23272,-0.438263 0.42312,-0.844824 0.42312,-0.903477 0,-0.155472 -1.4543,0.01425 -2.48504,0.290021 -1.13121,0.302647 -2.29738,0.916847 -3.091857,1.628435 l -0.626055,0.560733 -0.05549,0.958536 c -0.05892,1.017939 0.111556,1.819809 0.386903,1.819809 0.08698,0 0.296305,-0.16419 0.465165,-0.36487 z m 5.943064,-0.0757 c -0.0992,-0.52876 -0.37973,-1.10105 -0.53973,-1.10105 -0.14564,0 -0.14985,-0.0405 0.0748,0.71966 0.22339,0.75585 0.25742,0.82201 0.42277,0.82201 0.0798,0 0.095,-0.15897 0.0421,-0.44062 z m 6.14828,0.11449 c -0.2277,-0.9379 -0.99351,-2.282851 -1.29986,-2.282851 -0.17006,0 -1.23544,0.909336 -1.23343,1.052771 4.5e-4,0.0406 0.31111,0.27358 0.69008,0.51771 0.37897,0.24413 0.81473,0.57766 0.96835,0.74118 0.1712,0.18223 0.4099,0.29732 0.61667,0.29732 0.30816,0 0.33051,-0.0282 0.25819,-0.32613 z m -8.24119,-1.934898 c 0.62944,-0.155257 0.5186,-0.347007 -0.25071,-0.433718 -0.63282,-0.07133 -1.36769,0.259341 -1.74077,0.78328 -0.13595,0.190911 -0.24717,0.372666 -0.24717,0.403896 0,0.0312 0.3869,-0.0967 0.85978,-0.284322 0.47287,-0.187604 1.09336,-0.398717 1.37887,-0.469136 z m 12.92455,-0.368927 c -0.47443,-1.119471 -1.21297,-2.244473 -1.86716,-2.844178 -0.74463,-0.68262 -1.28787,-0.981574 -2.22919,-1.226756 -0.72568,-0.189016 -2.57476,-0.245289 -2.50862,-0.07634 0.0217,0.05553 0.33031,0.336693 0.68571,0.624796 0.3554,0.288102 0.87746,0.869704 1.16013,1.292454 0.50735,0.758767 0.52417,0.771008 1.31055,0.953785 0.43813,0.10183 1.08676,0.331449 1.4414,0.510264 0.70065,0.353273 2.13362,1.461619 2.15582,1.667439 0.008,0.07014 0.0374,0.03805 0.0663,-0.07133 0.0289,-0.109373 -0.0678,-0.482932 -0.21496,-0.830126 z m -7.52223,0.0611 0.46628,-0.545054 -1.77077,0.05833 c -1.84079,0.06063 -2.45809,0.176636 -2.16661,0.407157 0.0873,0.06901 0.47885,0.157457 0.8702,0.196546 0.39134,0.03908 0.925,0.149385 1.18589,0.245105 0.74128,0.271967 0.90939,0.228947 1.41501,-0.36208 z m -1.44514,-1.420411 c 1.10163,-0.06244 1.36698,-0.110238 1.26877,-0.228571 -0.15478,-0.186497 -1.46298,-0.716406 -2.03229,-0.823206 -0.40144,-0.07531 -0.4476,-0.04925 -0.85304,0.481739 -0.51445,0.673759 -0.53459,0.815332 -0.10251,0.72053 0.17937,-0.03935 0.95295,-0.107074 1.71907,-0.150492 z m 3.64712,-0.04303 c 0,-0.235594 -1.37405,-1.56651 -2.02641,-1.962798 -0.73174,-0.444511 -0.93025,-0.455084 -1.50385,-0.0801 -0.26224,0.171428 -0.24684,0.185538 0.60794,0.557125 1.02349,0.444928 1.55471,0.759986 2.22342,1.318679 0.44444,0.371323 0.6989,0.432159 0.6989,0.167089 z m -9.94521,-1.419114 c 1.01849,-0.475218 2.25023,-0.715264 3.67025,-0.715264 1.08353,0 1.22041,-0.02631 1.66343,-0.319459 0.4726,-0.31275 0.4769,-0.321755 0.20499,-0.428393 -0.47589,-0.186627 -2.58308,-0.14558 -3.37238,0.0657 -1.02125,0.273365 -1.98249,0.754015 -2.56888,1.284521 -0.27674,0.250367 -0.46913,0.457406 -0.42753,0.460077 0.0416,0.0027 0.41515,-0.153553 0.83012,-0.347182 z"
         id="path2"
         sodipodi:nodetypes="csscscsssssssscssscsscssscsssscssssssscsssssssssssssssssssssssssssssscsssssscssscssssscssssscssssccssccccssccsssscsssssscsscssssscssssssssssssssssssssssssssssscssssscscssssscsssssssssssssssssscssssssssssscssssssssssscssssssccsscsssssscssssssssssssssscssscss" /><path
         d="m 126.73546,106.91211 c -0.40396,-0.20846 -0.54259,-0.35272 -0.57041,-0.59354 -0.0482,-0.417 0.34462,-0.66574 0.5876,-0.37211 0.22207,0.26835 1.04068,0.62521 1.44142,0.62836 1.11226,0.009 1.69488,-1.15958 0.90834,-1.82142 -0.19834,-0.16689 -0.74281,-0.41726 -1.20994,-0.55638 -0.58986,-0.17567 -0.96877,-0.37239 -1.24035,-0.64396 -0.35634,-0.35635 -0.39102,-0.45481 -0.39102,-1.11029 0,-0.63271 0.0435,-0.76886 0.3617,-1.13123 0.46852,-0.53361 1.01891,-0.70901 1.98221,-0.63168 0.87255,0.07 1.39166,0.36773 1.39166,0.79807 0,0.47033 -0.33767,0.56069 -0.76175,0.20385 -0.92744,-0.78038 -2.26228,-0.42939 -2.26228,0.59487 0,0.55734 0.38463,0.89331 1.36909,1.19585 1.50296,0.46188 1.83326,0.80384 1.83238,1.89709 -8.7e-4,1.11695 -0.669,1.68663 -2.07487,1.76917 -0.6969,0.0409 -0.91577,0.004 -1.36378,-0.22665 z m 4,0.10861 c -0.0316,-0.0823 0.19429,-0.76271 0.50196,-1.51202 0.30766,-0.7493 0.71417,-1.79976 0.90334,-2.33435 0.35147,-0.99324 0.5717,-1.21386 0.98807,-0.9898 0.10359,0.0558 0.3402,0.51995 0.52579,1.03157 0.18559,0.51161 0.60517,1.56193 0.9324,2.33402 0.60086,1.41769 0.62419,1.69208 0.13619,1.6017 -0.13522,-0.0251 -0.36238,-0.33579 -0.58894,-0.80567 l -0.3688,-0.7649 h -0.92439 -0.92438 l -0.30685,0.79455 c -0.24676,0.63894 -0.3568,0.79455 -0.56191,0.79455 -0.14028,0 -0.2809,-0.0673 -0.31248,-0.14965 z m 2.75961,-2.14704 c 0,-0.18057 -0.46779,-1.38456 -0.59644,-1.53511 -0.0642,-0.0752 -0.70805,1.42035 -0.70805,1.64467 0,0.0289 0.29351,0.0525 0.65225,0.0525 0.47242,0 0.65224,-0.0447 0.65224,-0.16207 z m 3.63539,2.13093 c -0.98951,-0.36849 -1.50077,-1.18644 -1.50077,-2.40105 0,-1.56767 0.74351,-2.40241 2.22368,-2.49655 1.04439,-0.0664 1.63049,0.19714 1.63049,0.73321 0,0.41113 -0.37805,0.57195 -0.56389,0.23987 -0.16351,-0.29217 -0.86367,-0.55208 -1.24561,-0.46239 -0.47994,0.11271 -1.08254,0.74194 -1.22805,1.28231 -0.24072,0.89396 0.1841,2.15847 0.83891,2.49708 0.62878,0.32516 1.51188,0.19254 1.85968,-0.27928 0.1139,-0.1545 0.1657,-0.15853 0.32612,-0.0254 0.10489,0.0871 0.19072,0.25711 0.19072,0.3779 0,0.51896 -1.64185,0.86552 -2.53128,0.53431 z m 6.8598,0.081 c -0.13044,-0.0315 -0.40229,-0.13416 -0.6041,-0.22816 l -0.36692,-0.17092 0.0112,-2.93036 c 0.007,-1.80311 0.0568,-2.96388 0.12975,-3.01749 0.18087,-0.13289 1.86824,-0.10723 2.54894,0.0388 0.79374,0.17023 1.53104,0.73794 1.88552,1.45184 0.33887,0.68244 0.40635,2.05672 0.14514,2.9559 -0.2254,0.77594 -0.9382,1.5584 -1.63637,1.79629 -0.52299,0.1782 -1.58862,0.23072 -2.11311,0.10415 z m 2.00907,-0.77697 c 0.71187,-0.40343 1.07618,-1.20127 1.06727,-2.33732 -0.0139,-1.76794 -0.96002,-2.72775 -2.69092,-2.72978 l -0.5633,-4.5e-4 v 1.94017 c 0,1.0671 -0.0339,2.18733 -0.0753,2.48939 -0.0736,0.53717 -0.0665,0.55304 0.32612,0.72345 0.59765,0.25943 1.38942,0.22456 1.93611,-0.0853 z m 13.5913,0.70324 c -0.15488,-0.0805 -0.79384,-1.05352 -1.53486,-2.33718 -1.88017,-3.25703 -1.69383,-3.23481 -1.65047,-0.19687 l 0.0369,2.58472 -0.35577,-0.0351 -0.35577,-0.035 -0.0593,-3.08333 c -0.0382,-1.98794 -0.0172,-3.11429 0.0593,-3.17046 0.50421,-0.37044 1.30541,0.61105 3.07147,3.76261 l 0.66411,1.18511 v -2.45295 c 0,-1.52187 0.0454,-2.48101 0.11965,-2.52689 0.0658,-0.0406 0.2259,-0.0403 0.35576,8.7e-4 0.22789,0.0723 0.23612,0.18377 0.23612,3.19689 0,3.34568 -0.0116,3.40678 -0.58713,3.10743 z m 3.43889,0.0108 c -0.61076,-0.20527 -1.24823,-0.90443 -1.40985,-1.54628 -0.51669,-2.05194 0.63654,-3.55098 2.59515,-3.37338 0.39326,0.0357 0.84653,0.151 1.00726,0.25632 0.2453,0.16072 0.29223,0.16398 0.29223,0.0203 0,-0.21592 1.25752,-0.36736 2.28035,-0.27461 0.76109,0.069 0.96899,0.17876 0.86281,0.45547 -0.0538,0.14033 -0.28194,0.16398 -1.19582,0.12401 l -1.12927,-0.0494 0.0357,0.7556 0.0357,0.75559 0.74709,-0.0118 c 0.69421,-0.011 0.74458,0.006 0.71154,0.23718 -0.0311,0.21825 -0.12767,0.25337 -0.78163,0.28443 l -0.74607,0.0354 0.0345,0.91329 0.0345,0.91329 h 1.1266 c 1.04754,0 1.1266,0.0166 1.1266,0.23717 0,0.22212 -0.0903,0.23932 -1.42173,0.27084 -1.19431,0.0283 -1.444,0.003 -1.56091,-0.15667 -0.12748,-0.17434 -0.17152,-0.17359 -0.52457,0.009 -0.48422,0.2504 -1.58212,0.32509 -2.12021,0.14425 z m 1.767,-0.61993 c 0.49642,-0.25671 0.87893,-1.11967 0.81076,-1.82913 -0.0683,-0.71034 -0.4087,-1.40669 -0.84292,-1.72414 -0.43565,-0.3185 -1.27439,-0.31249 -1.71754,0.0123 -0.98215,0.71986 -0.96098,2.67271 0.0375,3.45811 0.39021,0.30694 1.20283,0.34627 1.71221,0.0829 z m 6.08471,0.652 c -0.50335,-0.1195 -0.70288,-0.29574 -0.85318,-0.75366 -0.13053,-0.39764 -0.10975,-4.04862 0.0238,-4.18216 0.042,-0.042 0.21591,-0.0414 0.3864,10e-4 l 0.30997,0.0778 -0.0353,1.90546 -0.0353,1.90547 0.33039,0.28418 c 0.4125,0.35482 0.82886,0.35961 1.50757,0.0173 l 0.52914,-0.26682 v -1.95673 c 0,-1.86757 0.0108,-1.95812 0.23718,-1.98706 0.48717,-0.0623 0.51368,0.0598 0.55406,2.55177 l 0.0389,2.40027 -0.38542,-1.2e-4 c -0.26348,-8e-5 -0.38542,-0.0564 -0.38542,-0.178 0,-0.21837 0.0616,-0.22372 -0.68316,0.0593 -0.65755,0.24992 -0.91364,0.27013 -1.53967,0.12152 z m 5.2428,0.0121 c -0.83232,-0.21557 -0.79849,-0.10329 -0.7746,-2.57049 0.0119,-1.2282 0.0525,-2.28312 0.0903,-2.34427 0.039,-0.0631 0.56124,-0.0871 1.20865,-0.0554 1.79306,0.0877 2.50117,0.58004 2.74702,1.90997 0.22275,1.20493 -0.27242,2.45112 -1.13694,2.86136 -0.49801,0.23632 -1.59515,0.33854 -2.13447,0.19886 z m 1.7275,-0.66928 c 0.51428,-0.26594 0.75828,-0.81522 0.76296,-1.71754 0.007,-1.31579 -0.63903,-2.0276 -1.86854,-2.05936 l -0.61785,-0.0159 -0.0325,1.91783 c -0.0365,2.15171 -0.097,2.01432 0.8982,2.04117 0.28044,0.008 0.66644,-0.0672 0.85777,-0.16614 z m 3.61311,0.71456 c -0.0652,-0.0218 -0.26162,-0.071 -0.43643,-0.10941 -0.63127,-0.13873 -0.89361,-0.66381 -0.4502,-0.90112 0.18729,-0.10023 0.28247,-0.0859 0.43347,0.065 0.49505,0.49506 1.44579,0.55555 1.88161,0.11973 0.56632,-0.56632 0.25558,-0.99126 -0.99781,-1.36454 -1.08773,-0.32394 -1.49139,-0.75916 -1.40608,-1.51601 0.0319,-0.28285 0.15766,-0.62621 0.27952,-0.76302 0.48034,-0.53926 1.52686,-0.71985 2.41546,-0.41683 0.3501,0.11939 0.41506,0.19697 0.41506,0.49569 0,0.45814 -0.28616,0.51909 -0.76723,0.16342 -0.87749,-0.64877 -2.01042,-0.0229 -1.5422,0.85193 0.0779,0.14553 0.44175,0.3203 1.0115,0.48585 1.1809,0.34313 1.47582,0.62112 1.47582,1.39111 0,0.45492 -0.0673,0.66951 -0.29482,0.93989 -0.37098,0.44088 -1.46343,0.74314 -2.01767,0.55826 z m -32.13561,-0.20487 c -0.0289,-0.0836 -0.0678,-1.17383 -0.0866,-2.42283 l -0.0342,-2.27093 0.52056,-0.0712 c 0.66367,-0.0908 1.88184,-0.0721 2.2663,0.0349 0.18701,0.052 0.29647,0.16807 0.29647,0.31431 0,0.2171 -0.0738,0.22918 -1.16222,0.19023 l -1.16221,-0.0416 0.0356,0.75314 0.0356,0.75313 0.74572,-0.001 c 0.67977,-0.001 0.74271,0.0198 0.71154,0.23718 -0.0294,0.20556 -0.13731,0.24343 -0.78026,0.27397 l -0.74607,0.0354 0.0345,0.91328 0.0345,0.91329 1.16258,-0.015 c 1.12176,-0.0145 1.16132,-0.006 1.1266,0.23718 -0.0341,0.23939 -0.10973,0.25387 -1.49101,0.28549 -1.1004,0.0252 -1.46782,-0.004 -1.50749,-0.11859 z"
         style="fill:#000000;stroke-width:0.448214;stroke-miterlimit:4"
         id="path1-4" /></g></g></svg>
