<?xml version="1.0" encoding="UTF-8" standalone="no"?>
<!-- Created with Inkscape (http://www.inkscape.org/) -->

<svg
   width="31.642134mm"
   height="31.642134mm"
   viewBox="0 0 31.642134 31.642133"
   version="1.1"
   id="svg1"
   xml:space="preserve"
   inkscape:export-filename="blog-logo.svg"
   inkscape:export-xdpi="96"
   inkscape:export-ydpi="96"
   xmlns:inkscape="http://www.inkscape.org/namespaces/inkscape"
   xmlns:sodipodi="http://sodipodi.sourceforge.net/DTD/sodipodi-0.dtd"
   xmlns:xlink="http://www.w3.org/1999/xlink"
   xmlns="http://www.w3.org/2000/svg"
   xmlns:svg="http://www.w3.org/2000/svg"><sodipodi:namedview
     id="namedview1"
     pagecolor="#ffffff"
     bordercolor="#000000"
     borderopacity="0.25"
     inkscape:showpageshadow="2"
     inkscape:pageopacity="0.0"
     inkscape:pagecheckerboard="0"
     inkscape:deskcolor="#d1d1d1"
     inkscape:document-units="mm" /><defs
     id="defs1"><linearGradient
       id="linearGradient1"
       inkscape:collect="always"><stop
         style="stop-color:#4ef7ff;stop-opacity:1;"
         offset="0"
         id="stop1" /><stop
         style="stop-color:#ffcd1b;stop-opacity:1;"
         offset="1"
         id="stop2" /></linearGradient><linearGradient
       inkscape:collect="always"
       xlink:href="#linearGradient1"
       id="linearGradient3"
       gradientUnits="userSpaceOnUse"
       gradientTransform="matrix(0.30580066,0,0,0.44797112,40.464798,127.56229)"
       x1="12.879291"
       y1="43.371944"
       x2="116.61693"
       y2="43.371944" /></defs><g
     inkscape:label="Calque 1"
     inkscape:groupmode="layer"
     id="layer1"
     transform="translate(-44.443748,-131.17061)"><path
       id="rect1-3"
       style="fill:url(#linearGradient3);stroke:#ffffff;stroke-width:0;stroke-linecap:round;stroke-linejoin:round;stroke-miterlimit:100"
       d="m 44.443748,131.17061 h 31.64213 v 31.64213 h -31.64213 z" /><path
       d="m 61.651961,157.13495 c -0.412281,-0.0633 -1.292809,-0.29495 -1.95673,-0.5148 -1.018506,-0.33726 -1.429496,-0.4088 -2.630205,-0.45785 -0.782693,-0.032 -1.743272,-0.14682 -2.134621,-0.25522 -3.119363,-0.86406 -5.242689,-3.3729 -5.326733,-6.29388 -0.02272,-0.7893 -0.07809,-1.04168 -0.295556,-1.34709 -1.222843,-1.71733 -0.860037,-4.24209 0.922387,-6.41891 0.240332,-0.29351 0.618104,-0.8961 0.839495,-1.33909 0.540697,-1.08191 1.610206,-2.22778 2.59152,-2.77656 1.283732,-0.71791 1.919881,-0.88415 3.64293,-0.952 1.323457,-0.0521 1.690472,-0.0241 2.570356,0.19636 1.001698,0.25094 1.05015,0.25234 2.009612,0.0579 1.850983,-0.37506 3.627759,-0.0692 5.055148,0.87026 1.815138,1.19464 3.323088,3.84539 3.827539,6.72821 0.12571,0.71843 0.35682,1.65311 0.51356,2.07706 0.957,2.58849 0.86499,5.32256 -0.24311,7.22451 -0.789441,1.35499 -2.419611,2.46815 -4.366756,2.98184 -1.099449,0.29004 -3.791545,0.40764 -5.018836,0.21923 z m 4.603768,-1.09855 c 2.318353,-0.59811 3.760473,-1.71776 4.408234,-3.42253 0.2833,-0.74558 0.46884,-2.2571 0.3463,-2.82116 l -0.0902,-0.41506 -0.14699,0.68338 c -0.372171,1.73037 -1.759931,3.54783 -3.236671,4.23889 -1.030281,0.48212 -2.377072,0.6735 -3.665619,0.52088 l -0.983204,-0.11646 -0.989055,0.50893 c -0.543982,0.27991 -1.066922,0.50893 -1.162095,0.50893 -0.09517,0 -0.173037,0.0496 -0.173037,0.11018 0,0.0995 0.648878,0.26541 1.600963,0.40922 0.67292,0.10164 3.439916,-0.0372 4.091344,-0.2052 z m -9.942281,-1.41115 c -0.727804,-0.73607 -1.287008,-1.54916 -1.390971,-2.02249 -0.05172,-0.2355 -0.181245,-0.37728 -0.421008,-0.46086 -0.848804,-0.29589 -2.252576,-1.06408 -3.069347,-1.67965 -0.489117,-0.36863 -0.906377,-0.61902 -0.927241,-0.55643 -0.07554,0.22663 0.350296,1.61315 0.65639,2.13717 0.568133,0.97264 1.539949,1.87152 2.577433,2.38402 0.860023,0.42484 2.132792,0.77988 2.902568,0.80969 0.259694,0.01 0.227692,-0.0496 -0.327824,-0.61145 z m 4.149044,0.13554 c 0.414248,-0.13469 0.79968,-0.28947 0.856522,-0.34397 0.05684,-0.0545 -0.290035,-0.21248 -0.770833,-0.3511 -0.480798,-0.13862 -1.667456,-0.51912 -2.637014,-0.84557 -0.969561,-0.32645 -1.789469,-0.56691 -1.822023,-0.53435 -0.104985,0.10498 0.433512,0.86632 0.93002,1.31488 0.265441,0.23981 0.73122,0.59557 1.035073,0.79058 0.635025,0.40756 1.078285,0.40196 2.408255,-0.0305 z m 5.31888,-0.94314 c 1.99365,-0.3205 3.45087,-1.66548 4.07173,-3.75811 0.10159,-0.34243 0.16628,-0.6226 0.14373,-0.6226 -0.0225,0 -0.31178,0.18224 -0.64276,0.40496 -0.33097,0.22273 -0.75638,0.43893 -0.94535,0.48043 -0.25588,0.0562 -0.4001,0.20076 -0.56492,0.56628 -0.47671,1.05714 -1.831937,2.05829 -3.396564,2.50912 -0.739544,0.21309 -0.870529,0.38271 -0.35577,0.46069 0.602721,0.0913 0.915234,0.0838 1.689904,-0.0408 z m -2.638624,-1.12553 c 0.126204,-0.039 0.22733,-0.88338 0.105801,-0.88338 -0.02335,0 -0.400774,0.18678 -0.838746,0.41506 -0.437967,0.22829 -0.885816,0.42209 -0.995221,0.43068 -0.109404,0.009 -0.01215,0.0514 0.216146,0.0952 0.390102,0.0748 1.181114,0.0447 1.51202,-0.0576 z m 2.261608,-0.65431 c 0.705139,-0.35236 1.562912,-1.1732 1.562912,-1.49561 0,-0.0938 -0.138337,-0.15654 -0.3452,-0.15654 -0.189864,0 -0.683494,-0.10604 -1.096958,-0.23565 -0.413463,-0.1296 -0.757117,-0.23633 -0.76367,-0.23718 -0.0066,-8.7e-4 -0.17094,0.25428 -0.365298,0.56693 -0.338106,0.5439 -0.348016,0.5977 -0.229401,1.2452 0.147628,0.80588 0.216263,0.82323 1.237615,0.31285 z m -4.985439,-0.0524 c 0.811942,-0.19142 1.530136,-0.52127 2.130881,-0.97865 0.445399,-0.33911 0.449486,-0.35699 0.16072,-0.70285 l -0.216805,-0.25969 -0.757614,0.30613 c -0.584174,0.23603 -0.974796,0.30801 -1.70633,0.3144 -1.543055,0.0135 -2.045749,-0.39246 -1.910541,-1.54287 0.07066,-0.60123 0.06077,-0.63349 -0.193391,-0.63101 -0.803444,0.008 -1.969337,0.99608 -2.239704,1.89849 -0.189123,0.63123 -0.09786,0.77265 0.793477,1.2295 1.043329,0.53475 2.608261,0.68037 3.939307,0.36655 z m -5.618368,-1.87783 c 0.244383,-1.30267 1.977607,-2.56804 3.517551,-2.56804 0.329325,0 0.484581,-0.0693 0.620614,-0.27688 0.172455,-0.2632 0.163849,-0.28725 -0.174243,-0.48697 -0.35074,-0.20718 -0.360032,-0.20591 -0.671782,0.0926 -0.813561,0.77908 -2.519349,1.10812 -3.876194,0.74771 -0.390039,-0.1036 -0.829239,-0.22279 -0.975993,-0.26485 -0.247754,-0.071 -0.266745,-0.0395 -0.265669,0.44135 4.47e-4,0.29663 0.123679,0.78098 0.287976,1.13386 0.299739,0.64379 1.213552,1.73457 1.371412,1.63701 0.05028,-0.0311 0.125124,-0.2362 0.166328,-0.45583 z m -2.400958,-0.58166 c -0.242905,-0.50029 -0.312077,-0.84912 -0.352125,-1.77567 -0.07373,-1.70567 -0.332275,-1.80417 -1.019959,-0.3886 -0.498844,1.02686 -0.498486,1.08916 0.0091,1.56811 0.481502,0.45433 1.473138,1.21087 1.593626,1.21581 0.0394,0.002 -0.06439,-0.27723 -0.230654,-0.61965 z m 11.35941,0.16009 c 0.08877,-0.16587 0.07921,-0.2412 -0.03622,-0.2855 -0.235868,-0.0905 -0.476173,0.10551 -0.393495,0.32097 0.09782,0.25492 0.282468,0.23968 0.429724,-0.0355 z m -2.691574,-0.13415 c 0.244595,-0.0693 0.444713,-0.17581 0.444713,-0.23664 0,-0.15166 -0.756619,-0.52424 -1.530577,-0.7537 -0.750232,-0.22243 -0.913391,-0.14481 -1.032724,0.49129 -0.112228,0.59822 0.159412,0.78244 1.021636,0.69285 0.358732,-0.0373 0.852362,-0.12448 1.096952,-0.1938 z m 6.422715,-0.5003 c 0.0804,-0.53722 -0.0739,-1.58389 -0.297718,-2.01922 -0.328312,-0.63857 -1.13771,-1.27165 -1.625823,-1.27165 -0.277355,0 -0.406677,0.70336 -0.425193,2.3125 l -0.01228,1.06731 0.592951,0.19802 c 0.326119,0.10892 0.840373,0.20231 1.142786,0.20754 l 0.549837,0.01 z m 1.44018,-0.0264 c 0.4795,-0.36574 0.89574,-1.20507 0.90427,-1.82347 0.0185,-1.33801 -1.64963,-3.43437 -3.45421,-4.34102 -1.11957,-0.56249 -1.073368,-0.59244 -1.073368,0.69589 v 1.13233 l 0.32612,0.0698 c 0.836514,0.17898 1.354537,0.45517 1.797408,0.9583 0.59025,0.67055 0.84187,1.38296 0.92648,2.62307 0.0367,0.5381 0.0942,0.97837 0.12779,0.97837 0.0336,0 0.23404,-0.13196 0.44551,-0.29325 z m -6.232286,-0.23092 c 0,-0.0274 -0.327012,-0.37682 -0.726697,-0.7765 -0.717285,-0.71729 -0.734442,-0.72624 -1.324811,-0.69138 -0.694277,0.041 -0.86758,0.27149 -0.296919,0.3949 0.480821,0.10398 1.359216,0.53863 1.75661,0.86921 0.2655,0.22086 0.591817,0.33322 0.591817,0.20377 z m 1.186756,-1.07818 0.257382,-0.41645 -0.360067,-0.76944 c -0.198039,-0.4232 -0.383935,-0.76945 -0.413105,-0.76945 -0.258726,0 -1.619681,0.51254 -1.619681,0.60998 0,0.16148 1.595876,1.76181 1.756906,1.76181 0.06665,0 0.237006,-0.1874 0.378565,-0.41645 z m -13.486025,-1.03628 c 0.176358,-0.34243 0.381568,-0.70686 0.456021,-0.80985 0.10585,-0.14643 0.06719,-0.35767 -0.177363,-0.96894 -0.171997,-0.42993 -0.312727,-0.91934 -0.312727,-1.08759 0,-0.49328 -0.18258,-0.35538 -0.517458,0.39083 -0.236746,0.52754 -0.312669,0.88841 -0.312669,1.48618 0,0.75849 0.234872,1.61197 0.443605,1.61197 0.05496,0 0.244232,-0.28017 0.420591,-0.6226 z m 6.134619,0.031 c 0.229396,-0.0637 0.589128,-0.26355 0.799398,-0.44405 l 0.382312,-0.32818 -0.41448,-0.64755 c -0.231256,-0.36129 -0.477178,-0.95106 -0.556301,-1.33413 -0.07799,-0.37762 -0.202825,-0.68659 -0.277403,-0.68659 -0.442468,0 -2.421455,0.87929 -3.057384,1.35844 -0.139143,0.10484 -0.249185,0.40468 -0.308251,0.83995 l -0.09186,0.67692 0.54543,0.24253 c 0.299989,0.1334 0.705528,0.28148 0.9012,0.32906 0.529058,0.12866 1.603116,0.12535 2.077339,-0.006 z m 3.669801,-0.66986 c 0.3285,-0.19405 0.32859,-0.19446 0.271066,-1.27484 -0.03165,-0.5944 -0.09124,-1.11801 -0.132425,-1.16356 -0.101309,-0.11206 -1.466298,-0.46272 -1.534749,-0.39427 -0.02994,0.0299 0.01636,0.22538 0.102932,0.43432 0.17046,0.41154 0.204811,1.27017 0.0717,1.7923 -0.07195,0.28219 -0.03066,0.35848 0.304529,0.56286 0.469661,0.28635 0.502676,0.2879 0.916946,0.0432 z m 1.889559,-0.88351 c 0.267687,-0.0802 0.485052,-0.17739 0.483035,-0.21599 -0.0058,-0.11266 -1.014118,-0.841 -1.164188,-0.841 -0.08687,0 -0.136633,0.24217 -0.136633,0.66493 0,0.52029 0.03599,0.65111 0.165542,0.60141 0.09105,-0.0349 0.384557,-0.12915 0.652244,-0.20935 z m -9.900445,-0.82892 c 0.168856,-0.20067 0.307058,-0.42748 0.307107,-0.504 1.89e-4,-0.27595 0.693946,-1.57043 1.037968,-1.93673 0.711202,-0.75726 1.920343,-1.10746 2.896991,-0.83903 0.298493,0.082 0.344107,0.0384 0.741188,-0.70942 0.232717,-0.43826 0.423123,-0.84482 0.423123,-0.90348 0,-0.15547 -1.4543,0.0143 -2.485043,0.29002 -1.13121,0.30265 -2.297376,0.91685 -3.091857,1.62844 l -0.626055,0.56073 -0.05549,0.95853 c -0.05892,1.01794 0.111556,1.81981 0.386903,1.81981 0.08698,0 0.296305,-0.16419 0.465165,-0.36487 z m 5.943063,-0.0757 c -0.0992,-0.52876 -0.379732,-1.10105 -0.53973,-1.10105 -0.145638,0 -0.149851,-0.0405 0.07482,0.71967 0.22339,0.75584 0.257418,0.822 0.422773,0.822 0.07977,0 0.09497,-0.15897 0.04214,-0.44062 z m 6.148275,0.1145 c -0.227696,-0.9379 -0.993509,-2.28286 -1.299854,-2.28286 -0.170061,0 -1.235441,0.90934 -1.233428,1.05277 4.48e-4,0.0406 0.311104,0.27358 0.690077,0.51771 0.378969,0.24413 0.814731,0.57766 0.968352,0.74118 0.171195,0.18223 0.4099,0.29732 0.61667,0.29732 0.30816,0 0.330503,-0.0282 0.258183,-0.32612 z m -8.241189,-1.9349 c 0.629448,-0.15526 0.518609,-0.34701 -0.250709,-0.43372 -0.632815,-0.0713 -1.367691,0.25934 -1.74077,0.78328 -0.135944,0.19091 -0.247168,0.37266 -0.247168,0.4039 0,0.0312 0.386897,-0.0967 0.859777,-0.28433 0.472878,-0.1876 1.093367,-0.39872 1.37887,-0.46913 z m 12.924552,-0.36893 c -0.47443,-1.11947 -1.21297,-2.24447 -1.867157,-2.84418 -0.74463,-0.68262 -1.287874,-0.98157 -2.229194,-1.22675 -0.725675,-0.18902 -2.574757,-0.24529 -2.508618,-0.0763 0.02173,0.0555 0.330311,0.33669 0.685712,0.62479 0.355402,0.28811 0.877459,0.86971 1.160129,1.29246 0.507346,0.75876 0.524167,0.77101 1.310548,0.95378 0.438133,0.10183 1.086766,0.33145 1.441406,0.51027 0.700644,0.35327 2.133614,1.46161 2.155814,1.66743 0.008,0.0701 0.0374,0.038 0.0663,-0.0713 0.0289,-0.10937 -0.0678,-0.48293 -0.21496,-0.83012 z m -7.522232,0.0611 0.466284,-0.54505 -1.770769,0.0583 c -1.84079,0.0606 -2.458092,0.17663 -2.166614,0.40715 0.08726,0.069 0.478853,0.15746 0.870201,0.19655 0.391344,0.0391 0.925001,0.14938 1.185897,0.2451 0.741273,0.27197 0.909389,0.22895 1.415001,-0.36208 z m -1.445134,-1.42041 c 1.101627,-0.0624 1.366974,-0.11024 1.26877,-0.22857 -0.154781,-0.1865 -1.462981,-0.71641 -2.032288,-0.82321 -0.401447,-0.0753 -0.4476,-0.0493 -0.853041,0.48174 -0.51445,0.67376 -0.534592,0.81533 -0.10251,0.72053 0.17937,-0.0393 0.952951,-0.10707 1.719069,-0.15049 z m 3.64712,-0.043 c 0,-0.23559 -1.374053,-1.56651 -2.026408,-1.9628 -0.731744,-0.44451 -0.930253,-0.45508 -1.503854,-0.0801 -0.262237,0.17143 -0.246841,0.18554 0.607939,0.55713 1.02349,0.44493 1.554707,0.75998 2.223419,1.31868 0.444444,0.37132 0.698904,0.43216 0.698904,0.16709 z m -9.945208,-1.41921 c 1.018488,-0.47522 2.250228,-0.71527 3.670244,-0.71527 1.083529,0 1.220413,-0.0263 1.663432,-0.31946 0.472596,-0.31275 0.476903,-0.32175 0.20499,-0.42839 -0.47589,-0.18663 -2.583081,-0.14558 -3.372379,0.0657 -1.021251,0.27337 -1.982493,0.75402 -2.568882,1.28452 -0.27674,0.25037 -0.469131,0.45741 -0.427532,0.46008 0.0416,0.003 0.415152,-0.15355 0.830127,-0.34718 z"
       style="fill:#000000;stroke-width:0.448214;stroke-miterlimit:4"
       id="path1-2" /></g></svg>
